<?xml version="1.0" encoding="UTF-8" standalone="no"?>
<svg width="30px" height="32px" viewBox="0 0 30 32" version="1.1" xmlns="http://www.w3.org/2000/svg" xmlns:xlink="http://www.w3.org/1999/xlink">
    <!-- Generator: Sketch 40.3 (33839) - http://www.bohemiancoding.com/sketch -->
    <title>cal_icn</title>
    <desc>Created with Sketch.</desc>
    <defs></defs>
    <g id="Create-Activity" stroke="none" stroke-width="1" fill="none" fill-rule="evenodd">
        <g id="Be-a-host" transform="translate(-405.000000, -2146.000000)" fill="#4D91AE">
            <path d="M433,2178 L407,2178 C405.895,2178 405,2177.105 405,2176 L405,2156.001 L405,2154.001 L405,2150 C405,2148.896 405.895,2148 407,2148 L413,2148 L413,2146 L415,2146 L415,2148 L425,2148 L425,2146 L427,2146 L427,2148 L434,2148 C435.104,2148 435,2148.896 435,2150 L435,2154.001 L435,2156.001 L435,2176 C435,2177.106 434.104,2178 433,2178 L433,2178 Z M433,2151.001 C433,2150.447 432.552,2150 432,2150 L427,2150 L427,2152.001 L425,2152.001 L425,2150 L415,2150 L415,2152.001 L413,2152.001 L413,2150 L408,2150 C407.447,2150 407,2150.447 407,2151.001 L407,2154.001 L433,2154.001 L433,2151.001 L433,2151.001 Z M433,2156.001 L407,2156.001 L407,2175 C407,2175.553 407.447,2176 408,2176 L432,2176 C432.552,2176 433,2175.553 433,2175 L433,2156.001 L433,2156.001 Z M425,2168 L431,2168 L431,2174 L425,2174 L425,2168 L425,2168 Z M427,2172.001 L429,2172.001 L429,2170 L427,2170 L427,2172.001 L427,2172.001 Z M425,2160.001 L431,2160.001 L431,2166 L425,2166 L425,2160.001 L425,2160.001 Z M427,2164 L429,2164 L429,2162 L427,2162 L427,2164 L427,2164 Z M417,2168 L423,2168 L423,2174 L417,2174 L417,2168 L417,2168 Z M419,2172.001 L421,2172.001 L421,2170 L419,2170 L419,2172.001 L419,2172.001 Z M417,2160.001 L423,2160.001 L423,2166 L417,2166 L417,2160.001 L417,2160.001 Z M419,2164 L421,2164 L421,2162 L419,2162 L419,2164 L419,2164 Z M409,2168 L415,2168 L415,2174 L409,2174 L409,2168 L409,2168 Z M411,2172.001 L413,2172.001 L413,2170 L411,2170 L411,2172.001 L411,2172.001 Z M409,2160.001 L415,2160.001 L415,2166 L409,2166 L409,2160.001 L409,2160.001 Z M411,2164 L413,2164 L413,2162 L411,2162 L411,2164 L411,2164 Z" id="cal_icn"></path>
        </g>
    </g>
</svg>