<?xml version="1.0" encoding="UTF-8" standalone="no"?>
<svg width="32px" height="32px" viewBox="0 0 32 32" version="1.1" xmlns="http://www.w3.org/2000/svg" xmlns:xlink="http://www.w3.org/1999/xlink">
    <!-- Generator: Sketch 40.3 (33839) - http://www.bohemiancoding.com/sketch -->
    <title>euro_icn</title>
    <desc>Created with Sketch.</desc>
    <defs></defs>
    <g id="Create-Activity" stroke="none" stroke-width="1" fill="none" fill-rule="evenodd">
        <g id="Be-a-host" transform="translate(-704.000000, -2147.000000)" fill="#4D91AE">
            <path d="M720,2179 C711.163,2179 704,2171.836 704,2163 C704,2154.163 711.163,2147 720,2147 C728.836,2147 736,2154.163 736,2163 C736,2171.835 728.836,2179 720,2179 L720,2179 Z M720,2148.999 C712.268,2148.999 706,2155.267 706,2162.999 C706,2170.729 712.268,2176.999 720,2176.999 C727.731,2176.999 734,2170.73 734,2162.999 C734,2155.267 727.731,2148.999 720,2148.999 L720,2148.999 Z M725.71,2159 C724.701,2157.788 723.2,2157 721.5,2157 C719.799,2157 718.299,2157.788 717.289,2159 L722,2159 C722.552,2159 723,2159.447 723,2160 C723,2160.552 722.552,2161 722,2161 L716.232,2161 C716.095,2161.48 716,2161.976 716,2162.5 C716,2162.672 716.035,2162.833 716.05,2163 L722,2163 C722.552,2163 723,2163.448 723,2164 C723,2164.553 722.552,2165 722,2165 L716.627,2165 C717.539,2166.773 719.367,2168 721.5,2168 C722.673,2168 723.755,2167.626 724.648,2167 L727.465,2167 C726.095,2168.812 723.944,2170 721.499,2170 C718.238,2170 715.491,2167.906 714.458,2165 L713,2165 C712.447,2165 712,2164.553 712,2164 C712,2163.448 712.447,2163 713,2163 L714.05,2163 C714.039,2162.832 714,2162.671 714,2162.5 C714,2161.986 714.052,2161.485 714.15,2161 L713,2161 C712.447,2161 712,2160.551 712,2160 C712,2159.448 712.447,2159 713,2159 L714.904,2159 C716.165,2156.631 718.629,2155 721.5,2155 C724.37,2155 726.834,2156.631 728.095,2159 L725.71,2159 L725.71,2159 Z" id="euro_icn"></path>
        </g>
    </g>
</svg>