<?xml version="1.0" encoding="UTF-8" standalone="no"?>
<svg width="33px" height="32px" viewBox="0 0 33 32" version="1.1" xmlns="http://www.w3.org/2000/svg" xmlns:xlink="http://www.w3.org/1999/xlink">
    <!-- Generator: Sketch 40.3 (33839) - http://www.bohemiancoding.com/sketch -->
    <title>chat_icn</title>
    <desc>Created with Sketch.</desc>
    <defs></defs>
    <g id="Create-Activity" stroke="none" stroke-width="1" fill="none" fill-rule="evenodd">
        <g id="Be-a-host" transform="translate(-996.000000, -2147.000000)" fill="#4D91AE">
            <path d="M1012.5,2175.002 C1011.888,2175.002 1011.286,2174.965 1010.692,2174.906 L1002.5,2179.002 L1002.5,2171.92 C998.845,2169.355 996.5,2165.42 996.5,2161.001 C996.5,2153.269 1003.663,2147 1012.5,2147 C1021.336,2147 1028.5,2153.269 1028.5,2161.001 C1028.5,2168.733 1021.336,2175.002 1012.5,2175.002 L1012.5,2175.002 Z M1012.5,2149.002 C1004.768,2149.002 998.5,2154.375 998.5,2161.002 C998.5,2165.066 1000.888,2168.619 1004.5,2170.785 L1004.5,2176.002 L1010.5,2173.003 C1010.5,2173.003 1010.205,2173.002 1012.5,2173.002 C1020.231,2173.002 1026.5,2167.629 1026.5,2161.002 C1026.5,2154.375 1020.231,2149.002 1012.5,2149.002 L1012.5,2149.002 Z M1019.5,2159.002 L1005.5,2159.002 C1004.947,2159.002 1004.5,2158.554 1004.5,2158.002 C1004.5,2157.45 1004.947,2157.002 1005.5,2157.002 L1019.5,2157.002 C1020.052,2157.002 1020.5,2157.45 1020.5,2158.002 C1020.5,2158.554 1020.052,2159.002 1019.5,2159.002 L1019.5,2159.002 Z M1007.5,2163.002 L1017.499,2163.002 C1018.052,2163.002 1018.5,2163.449 1018.5,2164.002 C1018.5,2164.554 1018.052,2165.002 1017.499,2165.002 L1007.5,2165.002 C1006.947,2165.002 1006.5,2164.554 1006.5,2164.002 C1006.5,2163.449 1006.947,2163.002 1007.5,2163.002 L1007.5,2163.002 Z" id="chat_icn"></path>
        </g>
    </g>
</svg>